<?xml version="1.0" standalone="no"?><!DOCTYPE svg PUBLIC "-//W3C//DTD SVG 1.1//EN" "http://www.w3.org/Graphics/SVG/1.1/DTD/svg11.dtd"><svg class="icon" width="200px" height="200.00px" viewBox="0 0 1024 1024" version="1.1" xmlns="http://www.w3.org/2000/svg"><path fill="#ffffff" d="M525.76 331.904 499.008 262.272 519.744 192.32 531.584 192.32 553.472 262.272ZM592.064 88.192c0 48.704-38.912 88-68.928 88-29.888 0-68.864-39.36-68.864-88C454.272 39.488 468.544 0 523.136 0 577.856 0 592.064 39.488 592.064 88.192zM337.664 464c0 0 0-31.552 0-165.12 0-76.736 61.888-110.72 114.688-126.016l73.28 201.856 73.216-201.856c52.8 15.296 114.816 49.28 114.816 126.016 0 133.568 0 165.12 0 165.12L573.76 464 477.504 464 337.664 464zM676.352 335.808 676.352 301.056 592.064 301.056l0 34.752L676.352 335.808zM101.44 589.184l821.184 0 0 434.816-821.184 0 0-434.816ZM64 494.656l896 0 0 62.528-896 0 0-62.528Z" /></svg>