<?xml version="1.0" standalone="no"?><!DOCTYPE svg PUBLIC "-//W3C//DTD SVG 1.1//EN" "http://www.w3.org/Graphics/SVG/1.1/DTD/svg11.dtd"><svg t="1614832591755" class="icon" viewBox="0 0 1026 1024" version="1.1" xmlns="http://www.w3.org/2000/svg" p-id="16205" xmlns:xlink="http://www.w3.org/1999/xlink" width="200.390625" height="200"><defs><style type="text/css"></style></defs><path d="M628.142507 96.426667l373.916444 297.073777a64 64 0 0 1-39.822222 114.104889H931.829618V824.888889c0 78.549333-63.672889 142.222222-142.222222 142.222222H240.217173c-78.549333 0-142.222222-63.672889-142.222222-142.222222L97.980729 507.605333H64.00384a64 64 0 0 1-39.822222-114.104889L398.126507 96.426667a184.888889 184.888889 0 0 1 230.030222 0z m-50.318223 333.795555A107.377778 107.377778 0 0 0 513.127396 451.783111a107.420444 107.420444 0 0 0-64.696889-21.532444c-59.548444 0-107.818667 48.213333-107.818667 107.690666 0 88.192 107.818667 193.848889 172.515556 193.848889 64.682667 0 172.515556-105.656889 172.515555-193.848889 0-59.477333-48.270222-107.690667-107.818667-107.690666z" fill="#ffffff" p-id="16206"></path></svg>