<?xml version="1.0" standalone="no"?><!DOCTYPE svg PUBLIC "-//W3C//DTD SVG 1.1//EN" "http://www.w3.org/Graphics/SVG/1.1/DTD/svg11.dtd"><svg t="1614530818027" class="icon" viewBox="0 0 1024 1024" version="1.1" xmlns="http://www.w3.org/2000/svg" p-id="1810" xmlns:xlink="http://www.w3.org/1999/xlink" width="200" height="200"><defs><style type="text/css"></style></defs><path d="M460.71 265.82c54.6 0 98.87-44.26 98.87-98.87s-44.26-98.87-98.87-98.87c-54.6 0-98.87 44.26-98.87 98.87s44.27 98.87 98.87 98.87zM350.47 665.24a1274.314 1274.314 0 0 0-168.07-69.7c-10.35-2.53-20.84 3.59-23.73 13.84-14.34 54.38-74.64 253.59-92.93 319.34-3 10.5 3.07 21.45 13.57 24.45 1.86 0.53 3.78 0.79 5.71 0.76h34.6c8.09 0.12 15.39-4.81 18.29-12.36 20.27-49.43 79.59-225.91 88.48-225.91 59.38 9.4 107.22 53.72 121.11 112.21a275.243 275.243 0 0 1-35.59 96.39c-5.19 9.92-1.36 22.16 8.55 27.36 2.71 1.42 5.7 2.2 8.75 2.3h40.04c7.18 0.29 13.9-3.55 17.3-9.89a274.78 274.78 0 0 0 49.43-120.62c-6.37-61.97-37.14-118.88-85.51-158.17z m605.56 246.18L788.94 594.55c-27.19-49.43-84.04-13.84-111.22 33.12L605.55 729.5l-38.56-36.58c0.96-5.56 0.96-11.25 0-16.81-12.36-71.68-67.23-316.86-107.27-356.41l-4.45-2.97-124.07-65.74a37.598 37.598 0 0 0-20.76-4.45c-43.01 0-141.87 16.31-173.51 21.26a20.786 20.786 0 0 0-14.34 10.38c-10.38 19.77-39.05 68.22-55.36 105.79-6.52 14.92-2.96 32.33 8.9 43.5l21.26 17.3 74.15 57.34c6.56 5.14 9.3 13.77 6.92 21.75-6.92 20.76 0 5.44-3.46 15.32-2.43 9.89 2.86 20.05 12.36 23.73 34.11 12.36 125.06 60.31 160.16 70.19 9.89 2.47 7.91-7.41 11.86-16.81l-3.95-4.94 218 166.59-87 148.3c-5.46 9.46-2.22 21.55 7.24 27.01a19.75 19.75 0 0 0 10.07 2.65h426.6c16.38 0.01 29.67-13.26 29.68-29.64a29.947 29.947 0 0 0-3.99-14.84zM245 348.99a20.24 20.24 0 0 1-2.29 8.29v0.99a517.308 517.308 0 0 0-29.66 67.23c-4.03 10.15-15.52 15.12-25.67 11.09-2.41-0.95-4.6-2.37-6.46-4.17l-40.04-37.07a282.53 282.53 0 0 1 25.21-57.34 20.26 20.26 0 0 1 18.29-10.38h41.52c11.18 0.61 19.73 10.18 19.1 21.36z m134.64 201.57l26.69-65.75c3.41-10.37 14.58-16.02 24.96-12.61a19.756 19.756 0 0 1 12.61 12.61c15.28 55.99 33.6 111.11 54.87 165.11l-119.13-99.36z" p-id="1811"></path></svg>