<?xml version="1.0" standalone="no"?><!DOCTYPE svg PUBLIC "-//W3C//DTD SVG 1.1//EN" "http://www.w3.org/Graphics/SVG/1.1/DTD/svg11.dtd"><svg class="icon" width="200px" height="200.00px" viewBox="0 0 1024 1024" version="1.1" xmlns="http://www.w3.org/2000/svg"><path fill="#333333" d="M608 85.333333a32 32 0 0 1 31.701333 27.648L640 117.333333V213.333333h224a32 32 0 0 1 32 32v661.333334a32 32 0 0 1-32 32h-128a32 32 0 0 1-32-32V789.333333h-85.333333v117.333334a32 32 0 0 1-32 32h-128a32 32 0 0 1-32-32V245.333333a32 32 0 0 1 32-32h117.333333V149.333333h-384v757.333334a32 32 0 0 1-63.701333 4.352L128 906.666667V117.333333a32 32 0 0 1 27.648-31.701333L160 85.333333h448z m224 192h-341.333333v597.333334H554.666667v-117.333334a32 32 0 0 1 32-32h149.333333a32 32 0 0 1 32 32v117.333334h64v-597.333334zM341.333333 725.333333v85.333334H256v-85.333334h85.333333z m298.666667-128v85.333334h-85.333333v-85.333334h85.333333z m128 0v85.333334h-85.333333v-85.333334h85.333333zM341.333333 597.333333v85.333334H256v-85.333334h85.333333z m298.666667-128v85.333334h-85.333333v-85.333334h85.333333z m128 0v85.333334h-85.333333v-85.333334h85.333333zM341.333333 469.333333v85.333334H256v-85.333334h85.333333z m0-128v85.333334H256V341.333333h85.333333z m298.666667 0v85.333334h-85.333333V341.333333h85.333333z m128 0v85.333334h-85.333333V341.333333h85.333333zM341.333333 213.333333v85.333334H256V213.333333h85.333333z" /></svg>