<?xml version="1.0" standalone="no"?><!DOCTYPE svg PUBLIC "-//W3C//DTD SVG 1.1//EN" "http://www.w3.org/Graphics/SVG/1.1/DTD/svg11.dtd"><svg class="icon" width="200px" height="200.00px" viewBox="0 0 1024 1024" version="1.1" xmlns="http://www.w3.org/2000/svg"><path fill="#333333" d="M512 128L85.333333 512h128v341.333333h597.333334v-341.333333h128L512 128m0 200.533333c89.6 0 162.133333 72.533333 162.133333 162.133334 0 128-162.133333 277.333333-162.133333 277.333333s-162.133333-149.333333-162.133333-277.333333c0-89.6 72.533333-162.133333 162.133333-162.133334m0 98.133334a64 64 0 0 0-64 64A64 64 0 0 0 512 554.666667a64 64 0 0 0 64-64A64 64 0 0 0 512 426.666667z"  /></svg>