<?xml version="1.0" standalone="no"?><!DOCTYPE svg PUBLIC "-//W3C//DTD SVG 1.1//EN" "http://www.w3.org/Graphics/SVG/1.1/DTD/svg11.dtd"><svg class="icon" width="200px" height="200.00px" viewBox="0 0 1024 1024" version="1.1" xmlns="http://www.w3.org/2000/svg"><path fill="#333333" d="M806.912 524.288h-64.512v281.6c0 8.192-5.12 12.288-13.312 12.288H602.112c-8.192 0-13.312-5.12-13.312-12.288V588.8h-153.6v217.088c0 8.192-5.12 12.288-13.312 12.288H294.912c-8.192 0-13.312-5.12-13.312-12.288V524.288h-64.512c-5.12 0-10.24-2.048-11.264-8.192-3.072-5.12-1.024-10.24 3.072-14.336l294.912-294.912c5.12-5.12 14.336-5.12 18.432 0L817.152 501.76c4.096 4.096 4.096 9.216 3.072 14.336s-8.192 8.192-13.312 8.192z" /></svg>